<svg width="250" height="250" viewBox="0 0 250 250" fill="none" xmlns="http://www.w3.org/2000/svg">
<g clip-path="url(#clip0_706_2)">
<path d="M175.797 1.06196C177.326 1.94849 178.51 3.32742 179.154 4.97348C179.798 6.61954 179.865 8.43541 179.344 10.1245L151.203 101.562H203.125C204.651 101.561 206.144 102.008 207.419 102.846C208.694 103.684 209.696 104.877 210.301 106.277C210.905 107.678 211.087 109.226 210.822 110.728C210.558 112.231 209.859 113.624 208.813 114.734L83.8126 247.546C82.6031 248.832 80.9936 249.671 79.2465 249.925C77.4994 250.18 75.7177 249.835 74.1918 248.947C72.6659 248.059 71.4857 246.68 70.8437 245.035C70.2016 243.391 70.1356 241.577 70.6563 239.89L98.7969 148.437H46.8751C45.3492 148.438 43.8566 147.991 42.5814 147.153C41.3062 146.315 40.3044 145.122 39.6995 143.721C39.0946 142.321 38.9132 140.773 39.1777 139.27C39.4421 137.768 40.1408 136.375 41.1876 135.265L166.188 2.45258C167.396 1.16819 169.003 0.330215 170.747 0.074902C172.492 -0.180411 174.272 0.161954 175.797 1.04633V1.06196Z" fill="#F8BD00"/>
</g>
<defs>
<clipPath id="clip0_706_2">
<rect width="250" height="250" fill="white"/>
</clipPath>
</defs>
</svg>
